<svg width="37" height="37" viewBox="0 0 37 37" fill="none" xmlns="http://www.w3.org/2000/svg">
<path d="M2 2L35.189 35.189" stroke="#519E19" stroke-width="3.3189" stroke-linecap="round" stroke-linejoin="round"/>
<path d="M9.82061 9.83709C4.76264 13.2766 2 18.5947 2 18.5947C2 18.5947 8.03436 30.2108 18.5945 30.2108C21.9969 30.2108 24.9293 29.0051 27.3416 27.3705M16.9351 7.07513C17.475 7.01192 18.0283 6.97852 18.5945 6.97852C29.1546 6.97852 35.189 18.5947 35.189 18.5947C35.189 18.5947 34.041 20.8046 31.8701 23.2967" stroke="#519E19" stroke-width="3.3189" stroke-linecap="round" stroke-linejoin="round"/>
<path d="M21.9135 22.3052C21.0326 23.0934 19.8697 23.5728 18.5946 23.5728C15.845 23.5728 13.6162 21.344 13.6162 18.5945C13.6162 17.2276 14.167 15.9895 15.0588 15.0898" stroke="#519E19" stroke-width="3.3189" stroke-linecap="round" stroke-linejoin="round"/>
</svg>
