<svg width="33" height="26" viewBox="0 0 33 26" fill="none" xmlns="http://www.w3.org/2000/svg">
<path d="M27.625 0H4.875C3.58207 0 2.34209 0.513615 1.42785 1.42785C0.513615 2.34209 0 3.58207 0 4.875V21.125C0 22.4179 0.513615 23.6579 1.42785 24.5721C2.34209 25.4864 3.58207 26 4.875 26H27.625C28.9179 26 30.1579 25.4864 31.0721 24.5721C31.9864 23.6579 32.5 22.4179 32.5 21.125V4.875C32.5 3.58207 31.9864 2.34209 31.0721 1.42785C30.1579 0.513615 28.9179 0 27.625 0ZM4.875 3.25H27.625C28.056 3.25 28.4693 3.42121 28.774 3.72595C29.0788 4.0307 29.25 4.44402 29.25 4.875L16.25 12.805L3.25 4.875C3.25 4.44402 3.42121 4.0307 3.72595 3.72595C4.0307 3.42121 4.44402 3.25 4.875 3.25ZM29.25 21.125C29.25 21.556 29.0788 21.9693 28.774 22.274C28.4693 22.5788 28.056 22.75 27.625 22.75H4.875C4.44402 22.75 4.0307 22.5788 3.72595 22.274C3.42121 21.9693 3.25 21.556 3.25 21.125V8.58L15.405 16.0063C15.652 16.1489 15.9323 16.224 16.2175 16.224C16.5027 16.224 16.783 16.1489 17.03 16.0063L29.25 8.58V21.125Z" fill="#519E19"/>
</svg>
